<svg width="44" height="28" viewBox="0 0 44 28" fill="none" xmlns="http://www.w3.org/2000/svg">
<g clip-path="url(#clip0_23_1000)">
<path d="M4.88892 16L4.88892 12L2.47955e-05 12L2.46207e-05 16L4.88892 16Z" fill="white"/>
<path d="M9.77783 16L9.77783 12L4.88894 12L4.88894 16L9.77783 16Z" fill="white"/>
<path d="M14.6667 16L14.6667 12L9.77786 12L9.77786 16L14.6667 16Z" fill="white"/>
<path d="M19.5557 16L19.5557 12L14.6668 12L14.6668 16L19.5557 16Z" fill="white"/>
<path d="M24.4443 16L24.4443 12L19.5554 12L19.5554 16L24.4443 16Z" fill="white"/>
<path d="M29.3333 28L29.3333 24L24.4444 24L24.4444 28L29.3333 28Z" fill="white"/>
<path d="M29.3333 16L29.3333 12L24.4444 12L24.4444 16L29.3333 16Z" fill="white"/>
<path d="M29.3333 4L29.3333 0L24.4444 -2.137e-07L24.4444 4L29.3333 4Z" fill="white"/>
<path d="M34.2222 24L34.2222 20L29.3333 20L29.3333 24L34.2222 24Z" fill="white"/>
<path d="M34.2222 16L34.2222 12L29.3333 12L29.3333 16L34.2222 16Z" fill="white"/>
<path d="M34.2222 8L34.2222 4L29.3333 4L29.3333 8L34.2222 8Z" fill="white"/>
<path d="M39.1111 20L39.1111 16L34.2222 16L34.2222 20L39.1111 20Z" fill="white"/>
<path d="M39.1111 16L39.1111 12L34.2222 12L34.2222 16L39.1111 16Z" fill="white"/>
<path d="M44 16L44 12L39.1111 12L39.1111 16L44 16Z" fill="white"/>
<path d="M39.1111 12L39.1111 8L34.2222 8L34.2222 12L39.1111 12Z" fill="white"/>
</g>
<defs>
<clipPath id="clip0_23_1000">
<rect width="28" height="44" fill="white" transform="translate(44) rotate(90)"/>
</clipPath>
</defs>
</svg>
